<?xml version="1.0" standalone="no"?>
<!DOCTYPE svg PUBLIC "-//W3C//DTD SVG 20010904//EN"
 "http://www.w3.org/TR/2001/REC-SVG-20010904/DTD/svg10.dtd">
<svg version="1.0" xmlns="http://www.w3.org/2000/svg"
 width="513.000000pt" height="486.000000pt" viewBox="0 0 513.000000 486.000000"
 preserveAspectRatio="xMidYMid meet">

<g transform="translate(0.000000,486.000000) scale(0.100000,-0.100000)"
fill="#000000" stroke="none">
<path d="M1805 4810 c-168 -43 -315 -119 -324 -165 -3 -17 1 -15 23 8 49 53
278 137 373 137 51 0 93 -33 93 -73 0 -68 -72 -214 -247 -497 -66 -107 -148
-245 -182 -306 -152 -272 -251 -583 -251 -790 0 -69 29 -193 59 -252 46 -90
120 -149 201 -159 135 -16 308 151 575 555 48 73 89 131 91 129 2 -2 -32 -96
-77 -208 -44 -112 -115 -289 -156 -394 -136 -343 -282 -655 -307 -655 -6 0
-112 84 -236 186 -297 246 -383 303 -552 366 -73 27 -97 31 -193 32 -91 1
-121 -3 -177 -22 -309 -107 -497 -472 -413 -803 67 -259 265 -446 540 -510
230 -53 509 15 770 187 91 60 322 274 380 353 17 22 35 41 40 41 6 0 60 -30
120 -66 229 -137 354 -188 590 -241 64 -14 124 -18 295 -18 231 1 283 9 449
71 195 73 375 243 480 451 34 67 25 69 -41 8 -479 -443 -1183 -542 -1712 -240
-44 25 -94 50 -113 57 -18 7 -33 16 -33 21 0 5 28 55 63 111 174 279 244 442
503 1171 122 345 280 690 399 870 130 197 266 294 426 303 162 9 311 -65 405
-201 l36 -52 -5 52 c-19 178 -156 283 -368 283 -212 0 -444 -127 -624 -342
-92 -109 -235 -325 -324 -488 -35 -63 -91 -155 -125 -205 -35 -49 -98 -142
-141 -205 -165 -242 -324 -432 -423 -503 -126 -91 -208 -63 -248 86 -21 78
-18 272 6 398 62 331 182 573 480 969 225 299 280 415 237 500 -6 14 -32 35
-57 48 -37 18 -59 22 -140 21 -57 0 -123 -8 -165 -19z m-801 -2226 c81 -21
115 -40 221 -121 95 -72 403 -331 423 -355 34 -42 -318 -454 -473 -553 -160
-102 -283 -140 -425 -132 -171 10 -298 64 -405 172 -121 121 -170 255 -162
435 5 125 26 190 92 289 97 147 264 253 444 281 72 11 208 4 285 -16z"/>
<path d="M3188 4353 c83 -78 96 -119 100 -307 4 -178 12 -164 -73 -132 -73 28
-241 15 -301 -23 -15 -10 -5 -11 52 -7 132 11 281 -20 304 -63 4 -9 13 -50 18
-90 17 -116 49 -169 188 -308 67 -67 125 -131 129 -142 9 -30 -8 -55 -78 -107
-91 -70 -102 -94 -84 -180 14 -69 5 -86 -54 -97 l-44 -9 38 -19 c20 -11 37
-27 37 -36 0 -8 -18 -35 -40 -59 -44 -48 -48 -69 -25 -134 45 -129 -20 -150
-234 -76 -156 54 -287 76 -452 76 -213 0 -342 -37 -437 -124 -40 -37 -99 -132
-89 -142 2 -3 20 4 38 15 88 51 257 47 434 -11 134 -44 229 -98 315 -183 105
-102 123 -110 245 -109 126 0 178 18 450 149 254 123 325 147 430 148 111 1
166 -29 246 -134 70 -92 93 -112 167 -140 61 -23 147 -22 225 1 38 11 42 30 5
30 -34 0 -72 52 -112 155 -43 107 -82 156 -153 190 -50 24 -46 35 11 35 149 0
302 -113 409 -302 26 -46 49 -87 51 -93 2 -5 7 -6 12 -2 5 5 9 79 9 165 0 132
-4 170 -23 240 -46 170 -137 294 -260 354 -64 32 -71 33 -187 32 -89 0 -142
-6 -205 -22 -116 -30 -200 -29 -269 3 -54 26 -67 44 -17 25 66 -25 243 -7 341
34 89 38 104 41 205 41 80 0 117 -5 155 -20 64 -25 138 -68 198 -118 26 -22
51 -37 54 -33 3 3 -2 34 -11 68 -51 185 -190 331 -336 354 -23 4 -94 1 -157
-6 -145 -17 -227 -6 -328 44 -66 33 -165 119 -152 133 3 3 49 -5 103 -17 186
-43 308 -15 424 96 33 32 59 59 56 61 -2 2 -25 -6 -52 -18 -39 -18 -69 -22
-149 -23 -89 -1 -106 2 -159 27 -146 68 -278 216 -479 539 -100 161 -133 198
-227 251 -68 38 -174 67 -247 67 l-65 0 50 -47z"/>
<path d="M2910 3630 c22 -31 134 -120 151 -120 5 0 6 7 3 15 -8 20 -6 19 60
-10 69 -31 119 -32 146 -5 21 21 25 36 12 44 -5 3 -7 18 -4 34 2 18 -2 33 -12
41 -14 12 -16 12 -10 -2 3 -8 1 -25 -6 -36 -22 -43 -181 -22 -295 38 -27 14
-54 28 -59 30 -5 2 1 -11 14 -29z"/>
<path d="M50 901 l0 -181 118 0 c130 0 173 15 193 66 12 33 -5 90 -31 104 -18
9 -18 11 3 49 26 47 18 82 -26 115 -24 18 -46 21 -143 25 l-114 3 0 -181z
m208 113 c26 -18 29 -56 6 -75 -9 -7 -43 -13 -82 -13 l-67 -1 -3 39 c-2 21 -1
44 2 52 8 20 115 19 144 -2z m28 -155 c19 -16 17 -49 -3 -71 -13 -14 -31 -18
-95 -18 l-78 0 0 49 0 50 38 4 c52 6 122 -1 138 -14z"/>
<path d="M540 900 l0 -180 135 0 135 0 0 25 0 25 -105 0 -105 0 0 50 0 49 88
3 c85 3 87 3 87 28 0 25 -2 25 -87 28 l-88 3 0 44 0 45 101 0 100 0 -3 28 -3
27 -127 3 -128 3 0 -181z"/>
<path d="M1093 1068 c-13 -17 -153 -326 -153 -339 0 -5 13 -9 28 -9 24 0 32 7
47 40 l18 40 92 0 93 0 16 -40 c14 -36 19 -40 50 -40 l35 0 -65 143 c-99 217
-96 212 -125 215 -14 2 -30 -3 -36 -10z m92 -198 c6 -19 2 -20 -59 -20 -36 0
-66 4 -66 9 0 4 14 41 32 80 l32 72 27 -60 c15 -33 30 -69 34 -81z"/>
<path d="M1456 1065 c-10 -26 -7 -179 5 -233 17 -83 91 -131 179 -115 58 10
87 30 109 77 19 38 21 58 19 162 l-3 119 -30 0 -30 0 -5 -133 c-5 -126 -6
-135 -29 -153 -49 -40 -132 -15 -146 44 -3 12 -6 72 -8 132 l-2 110 -26 3
c-17 2 -29 -3 -33 -13z"/>
<path d="M1910 1050 l0 -30 60 0 60 0 0 -150 0 -150 30 0 30 0 0 150 0 150 60
0 60 0 0 30 0 30 -150 0 -150 0 0 -30z"/>
<path d="M2310 1076 c0 -3 32 -57 70 -120 66 -109 70 -118 70 -175 l0 -61 30
0 30 0 0 61 c0 57 4 68 65 169 36 59 65 113 65 119 0 6 -11 11 -24 11 -20 0
-34 -16 -77 -85 -28 -47 -54 -85 -58 -85 -3 0 -29 37 -56 83 -45 73 -54 82
-83 85 -17 2 -32 1 -32 -2z"/>
<path d="M2990 1073 c-8 -3 -27 -17 -42 -31 -22 -20 -28 -35 -28 -68 0 -61 27
-80 157 -114 34 -8 44 -16 49 -37 5 -19 2 -30 -11 -40 -25 -18 -113 -16 -150
3 -27 14 -30 14 -42 -2 -19 -26 -16 -32 21 -48 123 -51 246 -10 246 83 0 51
-26 77 -100 97 -76 20 -104 36 -108 61 -7 46 73 68 142 39 32 -13 34 -13 45
10 10 23 8 26 -24 40 -33 14 -125 18 -155 7z"/>
<path d="M3392 900 l-80 -180 32 0 c29 0 35 5 51 40 l18 40 92 0 93 0 16 -40
c14 -34 20 -40 46 -40 16 0 30 4 30 9 0 9 -139 317 -153 339 -5 6 -21 12 -36
12 -27 0 -32 -9 -109 -180z m141 46 c46 -101 48 -96 -27 -96 -36 0 -66 4 -66
9 0 13 58 141 64 141 2 0 16 -24 29 -54z"/>
<path d="M3847 1073 c-3 -4 -4 -84 -3 -178 l1 -170 128 -3 127 -3 0 26 c0 25
0 25 -95 25 l-94 0 -3 153 -3 152 -27 3 c-14 2 -28 0 -31 -5z"/>
<path d="M4324 1061 c-133 -61 -139 -258 -9 -323 100 -50 234 -12 271 78 18
43 18 127 0 162 -19 36 -65 78 -99 91 -43 17 -117 13 -163 -8z m163 -58 c27
-18 53 -72 53 -111 0 -35 -36 -92 -70 -109 -49 -25 -125 -10 -159 31 -20 24
-30 84 -20 120 22 80 123 116 196 69z"/>
<path d="M4780 900 l0 -180 30 0 30 0 0 115 c0 63 3 115 8 115 4 -1 48 -51 97
-113 70 -86 97 -113 118 -115 l27 -3 2 118 c3 253 4 243 -32 243 l-29 0 -3
-122 -3 -122 -98 122 c-77 95 -104 122 -123 122 l-24 0 0 -180z"/>
<path d="M1263 433 c20 -2 54 -2 75 0 20 2 3 4 -38 4 -41 0 -58 -2 -37 -4z"/>
<path d="M1390 425 c0 -8 2 -15 4 -15 2 0 6 7 10 15 3 8 1 15 -4 15 -6 0 -10
-7 -10 -15z"/>
<path d="M1116 419 c-50 -12 -95 -39 -102 -61 -9 -30 5 -56 38 -67 45 -16 48
-13 8 7 -26 13 -35 24 -35 42 0 31 63 65 145 79 40 6 46 9 20 9 -19 0 -52 -4
-74 -9z"/>
<path d="M3536 397 c-17 -18 -44 -61 -60 -95 -34 -70 -49 -76 -116 -42 -44 23
-94 27 -88 8 3 -7 32 -20 67 -28 52 -13 65 -20 84 -50 18 -29 22 -31 25 -15
14 77 60 172 107 220 20 19 30 35 24 35 -6 0 -26 -15 -43 -33z m-189 -143 c-3
-3 -12 -4 -19 -1 -8 3 -5 6 6 6 11 1 17 -2 13 -5z m93 -39 c0 -8 -4 -15 -9
-15 -5 0 -11 7 -15 15 -3 9 0 15 9 15 8 0 15 -7 15 -15z"/>
<path d="M2025 410 c-26 -10 -88 -78 -110 -120 -18 -36 -17 -91 3 -98 11 -3
12 0 2 17 -12 23 -5 61 10 61 5 0 7 6 4 14 -6 15 65 99 98 117 39 21 17 -26
-34 -75 -31 -28 -39 -40 -21 -28 79 55 114 137 48 112z"/>
<path d="M2940 401 c-141 -28 -228 -83 -197 -125 12 -16 13 -15 12 10 0 23 8
33 41 51 62 35 186 63 309 72 l110 8 -95 1 c-52 0 -133 -7 -180 -17z"/>
<path d="M1552 380 c7 -11 16 -20 21 -20 4 0 3 9 -3 20 -6 11 -15 20 -20 20
-6 0 -5 -9 2 -20z"/>
<path d="M3259 382 c16 -31 -13 -88 -87 -172 -31 -35 -47 -58 -35 -52 12 7 42
35 67 64 73 83 93 141 59 169 -15 13 -15 12 -4 -9z"/>
<path d="M1342 331 c-47 -72 -121 -151 -171 -183 -43 -27 -38 -40 5 -15 55 32
149 141 190 220 22 42 11 32 -24 -22z"/>
<path d="M3800 340 c-11 -11 -20 -29 -20 -39 0 -10 -17 -33 -37 -51 -35 -29
-35 -30 -5 -10 18 12 40 34 49 48 9 15 26 37 37 50 24 27 4 30 -24 2z"/>
<path d="M2160 329 c0 -5 5 -7 10 -4 6 3 10 8 10 11 0 2 -4 4 -10 4 -5 0 -10
-5 -10 -11z"/>
<path d="M1464 291 c-35 -22 -64 -58 -64 -81 0 -8 8 -1 19 15 20 34 59 63 100
75 l26 8 -25 1 c-14 1 -39 -8 -56 -18z"/>
<path d="M1720 293 c-53 -37 -67 -57 -60 -83 7 -21 8 -22 9 -5 3 39 77 103
106 91 9 -3 13 -2 10 4 -9 15 -38 12 -65 -7z"/>
<path d="M2500 279 c-52 -45 -107 -79 -130 -79 -14 0 -22 10 -28 32 -5 21 -16
34 -28 37 -18 3 -18 2 -3 -15 10 -11 19 -28 21 -39 5 -30 49 -31 97 0 24 14
41 20 41 13 0 -6 17 7 38 30 38 41 72 55 72 29 0 -8 -10 -19 -22 -25 -13 -6
-18 -11 -12 -11 21 -2 47 26 41 43 -10 25 -48 18 -87 -15z"/>
<path d="M3609 281 c-16 -16 -29 -40 -29 -53 0 -20 2 -18 18 11 10 19 34 43
53 53 29 16 31 18 11 18 -13 0 -37 -13 -53 -29z"/>
<path d="M3978 278 c-29 -26 -34 -37 -28 -53 5 -11 9 -14 9 -6 1 19 66 81 86
81 22 0 19 -16 -7 -34 -12 -9 -18 -16 -12 -16 21 0 47 27 41 44 -10 26 -49 19
-89 -16z"/>
<path d="M2251 270 c-20 -17 -37 -41 -39 -57 l-3 -28 25 24 c14 14 26 30 26
37 0 7 12 22 26 33 15 12 20 21 13 21 -8 -1 -30 -14 -48 -30z"/>
<path d="M2085 254 c-22 -19 -32 -32 -23 -29 12 5 18 0 21 -17 4 -20 4 -21 6
-2 0 11 12 31 26 44 25 23 32 40 18 40 -5 -1 -26 -17 -48 -36z"/>
<path d="M3676 273 c-6 -14 -5 -15 5 -6 7 7 10 15 7 18 -3 3 -9 -2 -12 -12z"/>
<path d="M3813 284 c-7 -3 -10 -11 -7 -18 3 -7 -2 -19 -11 -26 -8 -7 -15 -19
-15 -26 0 -8 16 3 35 25 19 21 35 41 35 45 0 7 -19 7 -37 0z"/>
<path d="M1509 243 c-13 -15 -16 -21 -6 -14 15 12 17 11 17 -15 l1 -29 14 34
c26 58 14 69 -26 24z"/>
<path d="M1740 230 c-25 -22 -42 -40 -38 -40 4 0 23 14 42 30 20 18 37 26 41
20 11 -17 -19 -64 -45 -71 -24 -7 -24 -7 -2 -8 23 -1 23 -1 5 -32 -10 -17 -33
-47 -52 -66 -21 -21 -26 -31 -14 -25 50 27 122 140 126 198 3 39 -12 38 -63
-6z"/>
<path d="M4119 253 c-13 -16 -12 -17 4 -4 16 13 21 21 13 21 -2 0 -10 -8 -17
-17z"/>
<path d="M2629 243 c-13 -16 -12 -17 4 -4 16 13 21 21 13 21 -2 0 -10 -8 -17
-17z"/>
<path d="M2813 243 c9 -2 23 -2 30 0 6 3 -1 5 -18 5 -16 0 -22 -2 -12 -5z"/>
<path d="M3885 214 c-22 -13 -35 -24 -30 -24 12 0 75 38 75 45 0 6 2 7 -45
-21z"/>
<path d="M4065 219 c-16 -10 -25 -19 -19 -19 7 0 22 9 35 20 30 24 23 24 -16
-1z"/>
<path d="M2565 209 c-22 -10 -34 -19 -27 -19 15 0 72 28 72 35 0 6 3 7 -45
-16z"/>
<path d="M2010 205 c-14 -8 -20 -14 -14 -15 5 0 19 7 30 15 24 18 16 19 -16 0z"/>
<path d="M3680 210 c-9 -6 -10 -10 -3 -10 6 0 15 5 18 10 8 12 4 12 -15 0z"/>
<path d="M1644 128 c-59 -40 -86 -81 -65 -100 11 -10 12 -10 7 0 -14 24 6 51
66 92 33 22 56 40 50 40 -5 0 -32 -15 -58 -32z"/>
<path d="M1073 113 c9 -2 25 -2 35 0 9 3 1 5 -18 5 -19 0 -27 -2 -17 -5z"/>
<path d="M1608 13 c7 -3 16 -2 19 1 4 3 -2 6 -13 5 -11 0 -14 -3 -6 -6z"/>
</g>
</svg>
